# xmcd
#
# Track frame offsets: 
#        150
#        14944
#        33560
#        46855
#        56183
#        72299
#        84319
#        98973
#        113574
#        125933
#        134778
#        153808
#        177946
#
# Disc length: 2537 seconds
#
# Revision: 2
# Processed by: cddbd v1.5.2PL0 Copyright (c) Steve Scherf et al.
# Submitted via: ExactAudioCopy v0.99pb4
#
DISCID=bb09e70d
DTITLE=Kitty, Daisy and Lewis - Kitty, Daisy and Lewis
DYEAR=2008
DGENRE=Rockabilly
TTITLE0=Going Up The Country
TTITLE1=Buggin' Blues
TTITLE2=Polly Put The Kettle On
TTITLE3=Honolulu Rock-A Roll-A
TTITLE4=I Got My Mojo Working
TTITLE5=Mean Son Of A Gun
TTITLE6=Hillibilly Music
TTITLE7=Mohair Sam
TTITLE8=Ooo Wee
TTITLE9=Swinging Hawaii
TTITLE10=(Baby) Hold Me Tight
TTITLE11=Say You'll Be Mine
TTITLE12=Ride
EXTD=
EXTT0=
EXTT1=
EXTT2=
EXTT3=
EXTT4=
EXTT5=
EXTT6=
EXTT7=
EXTT8=
EXTT9=
EXTT10=
EXTT11=
EXTT12=
PLAYORDER=
